<?xml version="1.0" encoding="UTF-8"?>
<svg id="Layer_2" data-name="Layer 2" xmlns="http://www.w3.org/2000/svg" viewBox="0 0 113.39 113.39">
  <defs>
    <style>
      .cls-1 {
        fill: #fff;
      }

      .cls-2 {
        fill: #1e1e1c;
      }
    </style>
  </defs>
  <g id="Layer_1-2" data-name="Layer 1">
    <g>
      <rect class="cls-1" x="0" width="113.39" height="113.39"/>
      <g>
        <path class="cls-2" d="M33.23,60.64c-.91.89-2.07,1.36-3.35,1.36-3.85,0-4.1-3.82-4.1-6.69,0-3.97,1.08-6.24,4.15-6.24,1.15,0,2.16.37,2.91,1.12v3.26c-.42-.78-1.45-1.55-2.37-1.55-1.79,0-1.86,2.23-1.86,3.97s.12,3.62,1.24,3.62c.23,0,.42-.09.56-.17v-3.89h2.82v5.21Z"/>
        <path class="cls-2" d="M34.56,49.31h6.05v2.72h-3.22v2.16h3.22v2.72h-3.22v2.13h3.22v2.72h-6.05v-12.44Z"/>
        <path class="cls-2" d="M41.99,49.31h3.4l1.81,8.47h.04v-8.47h2.51v12.44h-3.19l-2.02-8.89h-.04v8.89h-2.51v-12.44Z"/>
        <path class="cls-2" d="M51.35,49.31h6.05v2.72h-3.22v2.16h3.22v2.72h-3.22v2.13h3.22v2.72h-6.05v-12.44Z"/>
        <path class="cls-2" d="M61.52,56.52h-.04v5.23h-2.72v-12.44h3.92c2.06,0,3.08,1.1,3.08,3.5,0,1.46-.28,3.01-1.78,3.42l1.97,5.52h-2.88l-1.57-5.23ZM61.49,54.54h.54c.73,0,.92-.77.92-1.32,0-.91-.28-1.29-1.12-1.29h-.35v2.61Z"/>
        <path class="cls-2" d="M70.92,59h-1.72l-.44,2.75h-2.86l2.09-12.44h4.24l2.02,12.44h-2.86l-.47-2.75ZM70.76,56.38l-.65-5.19h-.03l-.73,5.19h1.41Z"/>
        <path class="cls-2" d="M75.78,52.13h-2.02v-2.82h6.87v2.82h-2.02v9.62h-2.82v-9.62Z"/>
        <path class="cls-2" d="M81.4,49.31h6.05v2.72h-3.22v2.16h3.22v2.72h-3.22v2.13h3.22v2.72h-6.05v-12.44Z"/>
      </g>
    </g>
  </g>
</svg>